<svg width="10" height="10" xmlns="http://www.w3.org/2000/svg" xmlns:xlink="http://www.w3.org/1999/xlink" xml:space="preserve" overflow="hidden"><defs><clipPath id="clip0"><rect x="0" y="0" width="10" height="10"/></clipPath><clipPath id="clip1"><rect x="0" y="0" width="10" height="10"/></clipPath></defs><g clip-path="url(#clip0)"><g clip-path="url(#clip1)"><path d="M6.64144 0.384928C6.64144 0.172526 6.8514 0 7.111 0 7.37061 0 7.58057 0.172526 7.58057 0.384928L7.58057 2.07113C7.58057 2.28353 7.37061 2.45605 7.111 2.45605 6.8514 2.45605 6.64144 2.28353 6.64144 2.07113L6.64144 0.384928ZM5.38005 8.44808C5.35238 8.44808 5.3304 8.33171 5.3304 8.18766 5.3304 8.04362 5.35238 7.92725 5.38005 7.92725L6.66504 7.92725C6.69271 7.92725 6.71468 8.04362 6.71468 8.18766 6.71468 8.33171 6.69271 8.44808 6.66504 8.44808L5.38005 8.44808ZM1.28988 5.4598C1.26221 5.4598 1.24023 5.34342 1.24023 5.19938 1.24023 5.05534 1.26221 4.93896 1.28988 4.93896L2.57487 4.93896C2.60254 4.93896 2.62451 5.05534 2.62451 5.19938 2.62451 5.34342 2.60254 5.4598 2.57487 5.4598L1.28988 5.4598ZM3.33496 5.4598C3.30729 5.4598 3.28532 5.34342 3.28532 5.19938 3.28532 5.05534 3.30729 4.93896 3.33496 4.93896L4.61995 4.93896C4.64762 4.93896 4.6696 5.05534 4.6696 5.19938 4.6696 5.34342 4.64762 5.4598 4.61995 5.4598L3.33496 5.4598ZM5.38005 5.4598C5.35238 5.4598 5.3304 5.34342 5.3304 5.19938 5.3304 5.05534 5.35238 4.93896 5.38005 4.93896L6.66504 4.93896C6.69271 4.93896 6.71468 5.05534 6.71468 5.19938 6.71468 5.34342 6.69271 5.4598 6.66504 5.4598L5.38005 5.4598ZM7.42594 5.4598C7.39828 5.4598 7.3763 5.34342 7.3763 5.19938 7.3763 5.05534 7.39828 4.93896 7.42594 4.93896L8.71094 4.93896C8.73861 4.93896 8.76058 5.05534 8.76058 5.19938 8.76058 5.34342 8.73861 5.4598 8.71094 5.4598L7.42594 5.4598ZM1.28988 6.95394C1.26221 6.95394 1.24023 6.83756 1.24023 6.69352 1.24023 6.54948 1.26221 6.43311 1.28988 6.43311L2.57487 6.43311C2.60254 6.43311 2.62451 6.54948 2.62451 6.69352 2.62451 6.83756 2.60254 6.95394 2.57487 6.95394L1.28988 6.95394ZM3.33496 6.95394C3.30729 6.95394 3.28532 6.83756 3.28532 6.69352 3.28532 6.54948 3.30729 6.43311 3.33496 6.43311L4.61995 6.43311C4.64762 6.43311 4.6696 6.54948 4.6696 6.69352 4.6696 6.83756 4.64762 6.95394 4.61995 6.95394L3.33496 6.95394ZM5.38005 6.95394C5.35238 6.95394 5.3304 6.83756 5.3304 6.69352 5.3304 6.54948 5.35238 6.43311 5.38005 6.43311L6.66504 6.43311C6.69271 6.43311 6.71468 6.54948 6.71468 6.69352 6.71468 6.83756 6.69271 6.95394 6.66504 6.95394L5.38005 6.95394ZM7.42594 6.95394C7.39828 6.95394 7.3763 6.83756 7.3763 6.69352 7.3763 6.54948 7.39828 6.43311 7.42594 6.43311L8.71094 6.43311C8.73861 6.43311 8.76058 6.54948 8.76058 6.69352 8.76058 6.83756 8.73861 6.95394 8.71094 6.95394L7.42594 6.95394ZM1.28988 8.44808C1.26221 8.44808 1.24023 8.33171 1.24023 8.18766 1.24023 8.04362 1.26221 7.92725 1.28988 7.92725L2.57487 7.92725C2.60254 7.92725 2.62451 8.04362 2.62451 8.18766 2.62451 8.33171 2.60254 8.44808 2.57487 8.44808L1.28988 8.44808ZM3.33496 8.44808C3.30729 8.44808 3.28532 8.33171 3.28532 8.18766 3.28532 8.04362 3.30729 7.92725 3.33496 7.92725L4.61995 7.92725C4.64762 7.92725 4.6696 8.04362 4.6696 8.18766 4.6696 8.33171 4.64762 8.44808 4.61995 8.44808L3.33496 8.44808ZM2.40967 0.384928C2.40967 0.172526 2.61963 0 2.87923 0 3.13883 0 3.3488 0.172526 3.3488 0.384928L3.3488 2.07113C3.3488 2.28353 3.13883 2.45605 2.87923 2.45605 2.61963 2.45605 2.40967 2.28353 2.40967 2.07113L2.40967 0.384928ZM0.520833 3.68815 9.47835 3.68815 9.47835 1.74723C9.47835 1.68213 9.4515 1.62272 9.40837 1.57878 9.36523 1.53564 9.30583 1.50879 9.23991 1.50879L8.38216 1.50879C8.23812 1.50879 8.12175 1.39242 8.12175 1.24837 8.12175 1.10433 8.23812 0.987956 8.38216 0.987956L9.24072 0.987956C9.44987 0.987956 9.63949 1.0734 9.77702 1.21094 9.91455 1.34847 10 1.53809 10 1.74723L10 3.94938 10 9.24154C10 9.45068 9.91455 9.6403 9.77702 9.77783 9.63949 9.91536 9.44987 10.0008 9.24072 10.0008L0.759277 10.0008C0.55013 10.0008 0.360514 9.91536 0.222982 9.77783 0.0854492 9.63949 0 9.44987 0 9.24072L0 3.94857 0 1.74723C0 1.53809 0.0854492 1.34847 0.222982 1.21094 0.360514 1.0734 0.55013 0.987956 0.759277 0.987956L1.67643 0.987956C1.82048 0.987956 1.93685 1.10433 1.93685 1.24837 1.93685 1.39242 1.82048 1.50879 1.67643 1.50879L0.759277 1.50879C0.694173 1.50879 0.634766 1.53564 0.59082 1.57878 0.547689 1.62191 0.520833 1.68132 0.520833 1.74723L0.520833 3.68815ZM9.47917 4.2098 0.520833 4.2098 0.520833 9.24072C0.520833 9.30583 0.547689 9.36523 0.59082 9.40918 0.633952 9.45231 0.693359 9.47917 0.759277 9.47917L9.24072 9.47917C9.30583 9.47917 9.36523 9.45231 9.40918 9.40918 9.45231 9.36605 9.47917 9.30664 9.47917 9.24072L9.47917 4.2098ZM4.104 1.50879C3.95996 1.50879 3.84359 1.39242 3.84359 1.24837 3.84359 1.10433 3.95996 0.987956 4.104 0.987956L5.85286 0.987956C5.99691 0.987956 6.11328 1.10433 6.11328 1.24837 6.11328 1.39242 5.99691 1.50879 5.85286 1.50879L4.104 1.50879Z" fill="#000000" fill-rule="nonzero" fill-opacity="1"/></g></g></svg>