<svg width="150" height="150" viewBox="0 0 150 150" fill="none" xmlns="http://www.w3.org/2000/svg">
<rect width="150" height="150" rx="20" fill="white"/>
<path d="M19.76 12L29.815 124.883L74.933 137.463L120.177 124.837L130.24 12H19.76ZM109.351 37.862L106.004 75.467L106.014 75.67L106 76.137V76.133L103.622 102.427L103.36 104.763L75 112.607L74.978 112.627L46.667 104.739L44.75 83H58.633L59.618 94.054L75.004 98.224L75 98.232V98.23L90.443 94.001L92.075 76H59.792L59.515 72.957L58.884 65.828L58.553 62H93.302L94.566 48H41.64L41.363 44.959L40.733 37.828L40.401 34H109.682L109.351 37.862Z" fill="#1572B6"/>
</svg>
