<svg xmlns="http://www.w3.org/2000/svg" viewBox="0 0 560 560"><defs><style>.cls-1{fill:#272e30;}</style></defs><title>Asset 1</title><g id="Layer_2" data-name="Layer 2"><g id="Layer_1-2" data-name="Layer 1"><path class="cls-1" d="M56.37,168.19H213c21.37.93,38.26,4.94,50.86,12.22,14.38,8.31,25.86,20.44,34.35,36.59S311,252.56,311,275.33q0,33.46-12.23,59.74t-35.47,41.62Q239.92,392,199.36,392H107.05V254.8h46.67V360.17h34.81c18.2,0,32.11-2.8,41.72-8.49s17.27-15.21,22.87-28.65,8.4-28.47,8.4-45c0-15.87-2.71-29.87-8.21-42.09s-13-21.47-22.68-27.72-25.95-9.43-48.82-9.43H153.63l-91.47-.09A232,232,0,0,0,47.6,280c0,128.33,104.07,232.4,232.4,232.4a231.81,231.81,0,0,0,161.84-65.61h63.09A279.7,279.7,0,0,1,280,560h0C125.35,560,0,434.65,0,280H0A279.09,279.09,0,0,1,23.24,168.19Z"/><path class="cls-1" d="M523,392.19H348v-224h46.67V360.36h103.5A231.41,231.41,0,0,0,512.49,280c0-128.33-104.06-232.4-232.4-232.4a231.49,231.49,0,0,0-162.21,66h-63A279.47,279.47,0,0,1,280,0h0C414,0,526,94.08,553.56,219.8A283.9,283.9,0,0,1,560,280a279.49,279.49,0,0,1-23.33,112.19H523Z"/></g></g></svg>