<svg width="150" height="150" viewBox="0 0 150 150" fill="none" xmlns="http://www.w3.org/2000/svg">
<rect width="150" height="150" rx="20" fill="white"/>
<path d="M20.032 13L30.037 125.093L74.933 137.494L119.953 125.107L129.968 13H20.032ZM109.158 39.539L108.531 46.711L108.255 50H55.59L56.847 64H107.003L106.667 67.471L103.434 103.59L103.196 105.86L75 113.609V113.611L74.966 113.629L46.789 106.206L44.876 85H58.691L59.67 95.919L74.957 100H75V99.454L90.355 95.579L91.959 78H44.261L40.878 39.883L40.549 36H109.488L109.158 39.539Z" fill="#E44D26"/>
</svg>
