<svg width="150" height="150" viewBox="0 0 150 150" fill="none" xmlns="http://www.w3.org/2000/svg">
<rect width="150" height="150" rx="20" fill="white"/>
<rect x="15" y="15" width="120" height="120" fill="black"/>
<path d="M12 12V137H137V12H12ZM78.119 118.513C76.274 122.262 72.752 124.725 68.671 125.914C62.4 127.354 56.402 126.533 51.94 123.855C48.954 122.023 46.622 119.203 45.039 115.954L54.559 110.124C54.642 110.159 54.892 110.611 55.226 111.195C56.44 113.229 57.487 114.669 59.545 115.68C61.567 116.37 66.006 116.811 67.72 113.253C68.767 111.443 68.434 105.625 68.434 99.188C68.433 89.073 68.48 79 68.48 69H80.189C80.189 80 80.249 90.418 80.189 101.152C80.214 107.732 80.785 113.598 78.119 118.513ZM126.693 115.205C122.623 129.127 99.931 129.579 90.863 120.381C88.947 118.216 87.746 117.085 86.603 114.586C91.422 111.814 91.422 111.814 96.111 109.101C98.658 113.016 101.013 115.169 105.25 116.05C110.998 116.752 116.781 114.777 115.484 108.672C114.151 103.686 103.714 102.473 96.611 97.141C89.4 92.298 87.71 80.53 93.636 73.806C95.611 71.319 98.979 69.463 102.513 68.571L106.201 68.094C113.282 67.951 117.708 69.821 120.957 73.449C121.861 74.365 122.599 75.353 123.979 77.494C120.207 79.898 120.219 79.875 114.816 83.373C113.662 80.887 111.747 79.327 109.723 78.649C106.581 77.697 102.619 78.732 101.797 82.052C101.512 83.075 101.571 84.027 102.024 85.717C103.297 88.62 107.569 89.882 111.401 91.643C122.432 96.117 126.157 100.914 127.073 106.624C127.955 111.54 126.86 114.729 126.693 115.205Z" fill="#F0DB4F"/>
</svg>
