<svg width="150" height="150" viewBox="0 0 150 150" fill="none" xmlns="http://www.w3.org/2000/svg">
<rect width="150" height="150" rx="20" fill="white"/>
<path d="M123.678 41.334L79.535 15.729C76.754 14.145 73.111 14.145 70.308 15.729L25.82 41.334C22.951 42.985 21 46.088 21 49.407V100.549C21 103.868 22.992 106.972 25.862 108.632L37.591 115.32C43.218 118.092 44.777 118.092 47.337 118.092C55.671 118.092 59.999 113.053 59.999 104.264V53.774C60 53.061 60.445 52 59.744 52H54.122C53.41 52 52 53.061 52 53.773V104.263C52 108.159 48.384 112.036 41.798 108.743L29.676 101.73C29.254 101.5 29 101.037 29 100.549V49.407C29 48.925 29.463 48.441 29.891 48.194L74.269 22.633C74.4869 22.5172 74.7298 22.4567 74.9765 22.4567C75.2232 22.4567 75.4661 22.5172 75.684 22.633L119.647 48.188C120.068 48.441 120.001 48.91 120.001 49.407V100.549C120.001 101.037 120.093 101.512 119.678 101.747L75.545 127.323C75.167 127.55 74.675 127.55 74.26 127.323L62.943 120.574C62.602 120.376 62.191 120.305 61.863 120.488C58.718 122.271 58.134 122.508 55.184 123.531C54.457 123.784 53.385 124.223 55.592 125.46L70.39 134.214C71.8027 135.03 73.4055 135.46 75.037 135.46C76.6749 135.463 78.2845 135.033 79.703 134.214L123.679 108.632C126.55 106.96 128.001 103.868 128.001 100.549V49.407C128 46.088 126.549 42.993 123.678 41.334ZM88.727 92.445C77 92.445 74.418 89.21 73.557 83.379C73.455 82.751 72.923 82 72.283 82H66.553C65.844 82 65.273 82.86 65.273 83.566C65.273 91.032 69.333 100.078 88.727 100.078C102.765 100.078 110.815 94.623 110.815 84.969C110.815 75.397 104.348 72.885 90.733 71.083C76.971 69.264 75.573 68.345 75.573 65.121C75.573 62.463 76.757 58.918 86.947 58.918C96.051 58.918 99.407 60.872 100.788 67.009C100.907 67.586 101.434 68 102.029 68H107.783C108.137 68 108.474 67.857 108.722 67.604C108.963 67.332 109.089 66.991 109.058 66.625C108.165 56.056 101.145 51.131 86.946 51.131C74.314 51.131 66.78 56.465 66.78 65.406C66.78 75.104 74.277 77.784 86.402 78.983C100.907 80.405 102.035 82.525 102.035 85.378C102.035 90.334 98.057 92.445 88.727 92.445Z" fill="#83CD29"/>
</svg>
