<svg width="150" height="150" viewBox="0 0 150 150" fill="none" xmlns="http://www.w3.org/2000/svg">
<rect width="150" height="150" rx="20" fill="white"/>
<path d="M75 86.4C81.296 86.4 86.4 81.296 86.4 75C86.4 68.7039 81.296 63.6 75 63.6C68.7039 63.6 63.6 68.7039 63.6 75C63.6 81.296 68.7039 86.4 75 86.4Z" fill="#61DAFB"/>
<path d="M118.3 56.2C116.1 55.4 113.8 54.6 111.4 53.9C112 51.5 112.5 49.1 112.9 46.8C115 33.6 112.7 24.3 106.3 20.7C104.4 19.6 102.3 19.1 99.9 19.1C92.9 19.1 84 24.3 75 33C66 24.3 57.1 19.1 50.1 19.1C47.7 19.1 45.6 19.6 43.7 20.7C37.3 24.4 35 33.7 37.1 46.8C37.5 49.1 38 51.5 38.6 53.9C36.2 54.6 33.9 55.3 31.7 56.2C19.2 61 12.4 67.6 12.4 75C12.4 82.4 19.3 89 31.7 93.8C33.9 94.6 36.2 95.4 38.6 96.1C38 98.5 37.5 100.9 37.1 103.2C35 116.4 37.3 125.7 43.7 129.3C45.6 130.4 47.7 130.9 50.1 130.9C57.2 130.9 66.1 125.7 75 117C84 125.7 92.9 130.9 99.9 130.9C102.3 130.9 104.4 130.4 106.3 129.3C112.7 125.6 115 116.3 112.9 103.2C112.5 100.9 112 98.5 111.4 96.1C113.8 95.4 116.1 94.7 118.3 93.8C130.8 89 137.6 82.4 137.6 75C137.6 67.6 130.8 61 118.3 56.2ZM103.5 25.7C107.6 28.1 109 35.5 107.3 46C107 48.1 106.5 50.3 105.9 52.6C100.7 51.4 95.2 50.6 89.4 50.1C86 45.3 82.5 41 79 37.1C86.4 29.8 93.9 24.8 100 24.8C101.3 24.8 102.5 25.1 103.5 25.7ZM92.3 85C90.5 88.2 88.4 91.4 86.2 94.6C82.5 94.9 78.8 95 75 95C71.1 95 67.4 94.9 63.8 94.6C61.6 91.4 59.6 88.2 57.8 85C55.9 81.7 54.1 78.3 52.5 75C54.1 71.7 55.9 68.3 57.8 65C59.6 61.8 61.7 58.6 63.9 55.4C67.6 55.1 71.3 55 75.1 55C79 55 82.7 55.1 86.3 55.4C88.5 58.6 90.5 61.8 92.3 65C94.2 68.3 96 71.7 97.6 75C95.9 78.3 94.2 81.6 92.3 85ZM100.6 81.7C102.1 85.2 103.3 88.6 104.4 92C101 92.8 97.4 93.4 93.6 93.9C94.8 92 96.1 90 97.2 87.9C98.4 85.8 99.5 83.7 100.6 81.7ZM75 108.8C72.6 106.2 70.3 103.4 68.1 100.5C70.4 100.6 72.7 100.7 75 100.7C77.3 100.7 79.6 100.6 81.9 100.5C79.7 103.4 77.4 106.2 75 108.8ZM56.4 93.8C52.6 93.3 49 92.7 45.6 91.9C46.7 88.6 47.9 85.1 49.4 81.6C50.5 83.6 51.6 85.7 52.8 87.7C54 89.9 55.2 91.8 56.4 93.8ZM49.4 68.3C47.9 64.8 46.7 61.4 45.6 58C49 57.2 52.6 56.6 56.4 56.1C55.2 58 53.9 60 52.8 62.1C51.6 64.2 50.5 66.3 49.4 68.3ZM75 41.2C77.4 43.8 79.7 46.6 81.9 49.5C79.6 49.4 77.3 49.3 75 49.3C72.7 49.3 70.4 49.4 68.1 49.5C70.3 46.6 72.6 43.8 75 41.2ZM97.2 62.2L93.6 56.2C97.4 56.7 101 57.3 104.4 58.1C103.3 61.4 102.1 64.9 100.6 68.4C99.5 66.3 98.4 64.2 97.2 62.2ZM42.7 46C41 35.5 42.4 28.1 46.5 25.7C47.5 25.1 48.7 24.8 50 24.8C56 24.8 63.5 29.7 71 37.1C67.5 40.9 64 45.3 60.6 50.1C54.8 50.6 49.3 51.5 44.1 52.6C43.5 50.3 43.1 48.1 42.7 46ZM18 75C18 70.3 23.7 65.3 33.7 61.6C35.7 60.8 37.9 60.1 40.1 59.5C41.7 64.5 43.7 69.8 46.1 75.1C43.7 80.4 41.6 85.6 40.1 90.6C26.3 86.6 18 80.6 18 75ZM46.5 124.3C42.4 121.9 41 114.5 42.7 104C43 101.9 43.5 99.7 44.1 97.4C49.3 98.6 54.8 99.4 60.6 99.9C64 104.7 67.5 109 71 112.9C63.6 120.2 56.1 125.2 50 125.2C48.7 125.2 47.5 124.9 46.5 124.3ZM107.3 104C109 114.5 107.6 121.9 103.5 124.3C102.5 124.9 101.3 125.2 100 125.2C94 125.2 86.5 120.3 79 112.9C82.5 109.1 86 104.7 89.4 99.9C95.2 99.4 100.7 98.5 105.9 97.4C106.5 99.7 106.9 101.9 107.3 104ZM116.3 88.4C114.3 89.2 112.1 89.9 109.9 90.5C108.3 85.5 106.3 80.2 103.9 74.9C106.3 69.6 108.4 64.4 109.9 59.4C123.7 63.4 132 69.4 132 75C132 79.7 126.2 84.7 116.3 88.4Z" fill="#61DAFB"/>
</svg>
