<svg width="150" height="150" viewBox="0 0 150 150" fill="none" xmlns="http://www.w3.org/2000/svg">
<rect width="150" height="150" rx="20" fill="white"/>
<path d="M13 74.91V137.41H138V12.41H13V74.91ZM113.73 69.91C116.724 70.6047 119.445 72.1706 121.55 74.41C122.709 75.6164 123.716 76.9597 124.55 78.41C124.55 78.57 119.15 82.22 115.86 84.26C115.74 84.34 115.26 83.82 114.73 83.03C114.129 81.9936 113.276 81.1264 112.25 80.5091C111.223 79.8918 110.057 79.5446 108.86 79.5C105.07 79.24 102.63 81.23 102.65 84.5C102.619 85.3141 102.805 86.1219 103.19 86.84C104.02 88.57 105.57 89.6 110.43 91.7C119.38 95.55 123.21 98.09 125.59 101.7C128.25 105.7 128.84 112.16 127.04 116.94C125.04 122.14 120.14 125.67 113.21 126.84C110.045 127.202 106.847 127.169 103.69 126.74C98.8722 125.958 94.4279 123.664 91 120.19C89.85 118.92 87.61 115.61 87.75 115.37C88.1151 115.099 88.4994 114.855 88.9 114.64L93.5 112L97.09 109.92L97.84 111.03C99.1057 112.841 100.717 114.383 102.58 115.57C106.58 117.67 112.04 117.38 114.74 114.95C115.647 114.06 116.212 112.879 116.338 111.615C116.464 110.35 116.143 109.082 115.43 108.03C114.43 106.64 112.43 105.47 106.84 103.03C100.39 100.25 97.61 98.53 95.07 95.79C93.4843 93.9819 92.3136 91.8486 91.64 89.54C91.1375 86.9024 91.0633 84.2011 91.42 81.54C92.75 75.31 97.42 70.96 104.24 69.67C107.398 69.2792 110.598 69.3668 113.73 69.93V69.91ZM84.39 75.15V80.27H68.16V126.5H56.65V80.26H40.38V75.26C40.3363 73.5387 40.3831 71.8163 40.52 70.1C40.58 70.02 50.52 69.98 62.52 70H84.33L84.39 75.15Z" fill="#007ACC"/>
</svg>
